<?xml version="1.0" encoding="UTF-8" standalone="no"?>
<svg
   inkscape:version="1.1 (c4e8f9e, 2021-05-24)"
   sodipodi:docname="Dattivox logofull.svg"
   version="1.1"
   viewBox="0 0 475.47 288.62"
   id="Calque_2"
   xmlns:inkscape="http://www.inkscape.org/namespaces/inkscape"
   xmlns:sodipodi="http://sodipodi.sourceforge.net/DTD/sodipodi-0.dtd"
   xmlns:xlink="http://www.w3.org/1999/xlink"
   xmlns="http://www.w3.org/2000/svg"
   xmlns:svg="http://www.w3.org/2000/svg"
   xmlns:rdf="http://www.w3.org/1999/02/22-rdf-syntax-ns#"
   xmlns:cc="http://creativecommons.org/ns#"
   xmlns:dc="http://purl.org/dc/elements/1.1/">
  <metadata
     id="metadata7343">
    <rdf:RDF>
      <cc:Work
         rdf:about="">
        <dc:format>image/svg+xml</dc:format>
        <dc:type
           rdf:resource="http://purl.org/dc/dcmitype/StillImage" />
      </cc:Work>
    </rdf:RDF>
  </metadata>
  <sodipodi:namedview
     inkscape:current-layer="Calque_1-2"
     inkscape:window-maximized="0"
     inkscape:window-y="43"
     inkscape:window-x="0"
     inkscape:cy="178.08416"
     inkscape:cx="183.45561"
     inkscape:zoom="1.210102"
     showgrid="false"
     id="namedview7341"
     inkscape:window-height="715"
     inkscape:window-width="1589"
     inkscape:pageshadow="2"
     inkscape:pageopacity="0"
     guidetolerance="10"
     gridtolerance="10"
     objecttolerance="10"
     borderopacity="1"
     inkscape:document-rotation="0"
     bordercolor="#666666"
     pagecolor="#ffffff"
     inkscape:pagecheckerboard="0" />
  <defs
     id="defs7323">
    <style
       id="style7305">.cls-1{fill:url(#Dégradé_sans_nom_135);}.cls-2{fill:#4c2e76;font-family:ClashDisplay-Medium, 'Clash Display';font-size:90px;font-weight:500;}.cls-3{fill:#fff;}.cls-4{fill:url(#Dégradé_sans_nom_135-2);}.cls-5{fill:url(#Dégradé_sans_nom_135-4);}.cls-6{fill:url(#Dégradé_sans_nom_135-3);}</style>
    <linearGradient
       gradientUnits="userSpaceOnUse"
       y2="0"
       x2="237.73"
       y1="188.86"
       x1="237.73"
       id="Dégradé_sans_nom_135">
      <stop
         id="stop7307"
         stop-color="#4c2e76"
         offset="0" />
      <stop
         id="stop7309"
         stop-color="#503279"
         offset=".21" />
      <stop
         id="stop7311"
         stop-color="#5c3e82"
         offset=".42" />
      <stop
         id="stop7313"
         stop-color="#705392"
         offset=".64" />
      <stop
         id="stop7315"
         stop-color="#8c70a8"
         offset=".86" />
      <stop
         id="stop7317"
         stop-color="#a286b9"
         offset="1" />
    </linearGradient>
    <linearGradient
       xlink:href="#Dégradé_sans_nom_135"
       gradientTransform="translate(307.92 -119.06) rotate(90)"
       y2="72.96"
       x2="213.49"
       y1="115.9"
       x1="213.49"
       id="Dégradé_sans_nom_135-2" />
    <linearGradient
       xlink:href="#Dégradé_sans_nom_135"
       gradientTransform="translate(356.4 -167.55) rotate(90)"
       y2="72.96"
       x2="261.97"
       y1="115.9"
       x1="261.97"
       id="Dégradé_sans_nom_135-3" />
    <linearGradient
       xlink:href="#Dégradé_sans_nom_135"
       gradientTransform="translate(332.17 -143.31) rotate(90)"
       y2="64.78"
       x2="237.74"
       y1="124.08"
       x1="237.74"
       id="Dégradé_sans_nom_135-4" />
  </defs>
  <g
     id="Calque_1-2">
    <g
       aria-label="dattivox"
       id="text7327"
       class="cls-2"
       style="font-weight:500;font-size:90px;font-family:ClashDisplay-Medium, 'Clash Display';fill:#4c2e76">
      <path
         d="m 80.360074,263.559 c 10.08,0 16.65,-4.86 18.54,-13.77 h 0.63 v 12.87 h 8.909996 v -60.3 h -9.719996 v 27.72 h -0.54 c -1.8,-7.56 -7.83,-13.05 -18.45,-13.05 -13.59,0 -21.33,9.36 -21.33,23.31 0,13.77 7.83,23.22 21.96,23.22 z m -12.15,-23.22 c 0,-10.8 5.58,-14.49 14.94,-14.49 9.99,0 15.57,4.68 15.57,14.22 v 0.72 c 0,9.36 -5.85,13.86 -15.39,13.86 -9.63,0 -15.12,-3.6 -15.12,-14.31 z"
         style="font-family:'Clash Display';-inkscape-font-specification:'Clash Display Medium'"
         id="path7922" />
      <path
         d="m 130.56742,263.559 c 10.17,0 17.28,-4.5 19.62,-12.06 h 0.63 v 11.16 h 8.91 v -27.18 c 0,-10.71 -6.39,-18.45 -20.61,-18.45 -14.22,0 -22.68,7.65 -22.68,17.82 v 0.36 h 9.63 v -0.36 c 0,-6.57 4.05,-9.27 12.33,-9.27 8.55,0 11.79,2.61 11.79,9.99 v 2.61 l -20.34,2.16 c -8.82,0.99 -14.4,4.59 -14.4,11.52 0,7.38 5.85,11.7 15.12,11.7 z m -5.4,-12.33 c 0,-3.51 2.43,-4.68 7.47,-5.31 l 17.55,-1.98 c 0,8.82 -6.84,12.6 -17.01,12.6 -5.58,0 -8.01,-1.71 -8.01,-5.31 z"
         style="font-family:'Clash Display';-inkscape-font-specification:'Clash Display Medium'"
         id="path7924" />
      <path
         d="m 197.74398,262.659 v -8.73 h -8.1 c -5.58,0 -8.1,-1.44 -8.1,-6.93 v -20.97 h 16.2 v -8.1 h -16.2 v -9.81 h -9.63 v 9.81 h -7.56 v 8.1 h 7.56 v 21.51 c 0,10.89 5.94,15.12 15.57,15.12 z"
         style="font-family:'Clash Display';-inkscape-font-specification:'Clash Display Medium'"
         id="path7926" />
      <path
         d="m 233.25179,262.659 v -8.73 h -8.1 c -5.58,0 -8.1,-1.44 -8.1,-6.93 v -20.97 h 16.2 v -8.1 h -16.2 v -9.81 h -9.63 v 9.81 h -7.56 v 8.1 h 7.56 v 21.51 c 0,10.89 5.94,15.12 15.57,15.12 z"
         style="font-family:'Clash Display';-inkscape-font-specification:'Clash Display Medium'"
         id="path7928" />
      <path
         d="m 249.13961,212.709 v -10.35 h -9.72 v 10.35 z m 0,49.95 v -44.73 h -9.72 v 44.73 z"
         style="font-family:'Clash Display';-inkscape-font-specification:'Clash Display Medium'"
         id="path7930" />
      <path
         d="m 286.9382,262.659 21.06,-44.73 h -10.53 l -15.93,35.28 h -0.72 l -15.93,-35.28 h -10.71 l 20.88,44.73 z"
         style="font-family:'Clash Display';-inkscape-font-specification:'Clash Display Medium'"
         id="path7932" />
      <path
         d="m 335.75617,263.559 c 14.94,0 24.93,-9.45 24.93,-23.22 0,-13.95 -9.99,-23.31 -24.93,-23.31 -14.85,0 -24.84,9.36 -24.84,23.31 0,13.77 9.99,23.22 24.84,23.22 z m 0,-8.64 c -10.8,0 -15.3,-5.13 -15.3,-14.58 0,-9.54 4.5,-14.76 15.3,-14.76 10.89,0 15.39,5.22 15.39,14.76 0,9.45 -4.5,14.58 -15.39,14.58 z"
         style="font-family:'Clash Display';-inkscape-font-specification:'Clash Display Medium'"
         id="path7934" />
      <path
         d="m 375.11992,262.659 14.67,-17.1 h 0.63 l 14.85,17.1 h 11.79 l -19.26,-22.32 v -0.54 l 19.26,-21.87 h -11.7 l -14.67,16.92 h -0.54 l -14.85,-16.92 h -11.79 l 19.26,22.05 v 0.54 l -19.26,22.14 z"
         style="font-family:'Clash Display';-inkscape-font-specification:'Clash Display Medium'"
         id="path7936" />
    </g>
    <circle
       id="circle7329"
       r="94.43"
       cy="94.43"
       cx="237.73"
       class="cls-1" />
    <circle
       id="circle7331"
       r="54.54"
       cy="94.43"
       cx="237.73"
       class="cls-3" />
    <rect
       id="rect7333"
       transform="translate(119.06 307.92) rotate(-90)"
       ry="7.12"
       rx="7.12"
       height="14.24"
       width="42.95"
       y="87.31"
       x="192.02"
       class="cls-4" />
    <rect
       id="rect7335"
       transform="translate(167.55 356.4) rotate(-90)"
       ry="7.12"
       rx="7.12"
       height="14.24"
       width="42.95"
       y="87.31"
       x="240.5"
       class="cls-6" />
    <rect
       id="rect7337"
       transform="translate(143.31 332.17) rotate(-90)"
       ry="6.93"
       rx="6.93"
       height="14.24"
       width="59.29"
       y="87.31"
       x="208.09"
       class="cls-5" />
  </g>
</svg>
